<?xml version="1.0" encoding="UTF-8"?>
<svg version="1.1" xmlns="http://www.w3.org/2000/svg" width="613" height="265">
<path d="M0 0 C0.91798142 0.00234117 1.83596284 0.00468233 2.78176188 0.00709444 C3.75174263 0.005641 4.72172337 0.00418756 5.72109747 0.00269008 C9.01472082 -0.00099795 12.30829869 0.00252938 15.6019218 0.00595194 C17.96970781 0.00480123 20.33749365 0.00321404 22.70527911 0.0012247 C27.875646 -0.00209569 33.04600342 -0.00226974 38.21637034 0.00027186 C45.90465225 0.00404099 53.5929253 0.00212758 61.28120714 -0.00093645 C75.00928905 -0.0062135 88.73736632 -0.00574131 102.46544868 -0.00285754 C114.47881538 -0.00034622 126.49218038 0.0003167 138.50554729 -0.00088018 C139.69887107 -0.00099476 139.69887107 -0.00099476 140.9163024 -0.00111165 C144.1453476 -0.00142297 147.3743928 -0.00174137 150.603438 -0.00207142 C180.92088284 -0.00513337 211.23832473 -0.00235228 241.55576912 0.00302548 C268.51630467 0.00777141 295.4768355 0.0073468 322.43737102 0.00256449 C352.69784882 -0.00278517 382.958324 -0.00491625 413.21880221 -0.00182325 C416.44211014 -0.00150251 419.66541807 -0.00118967 422.888726 -0.00088018 C423.68244045 -0.0008011 424.4761549 -0.00072203 425.29392131 -0.00064055 C437.3024523 0.00049898 449.3109814 -0.00083718 461.31951213 -0.00335974 C474.96787965 -0.00621239 488.61624178 -0.00551831 502.26460862 -0.00007899 C509.91179131 0.00286777 517.55896236 0.00303396 525.20614476 -0.00072517 C530.90047047 -0.00321663 536.59478399 -0.0005348 542.2891078 0.00424941 C544.60469259 0.00537475 546.92027892 0.00477986 549.23586273 0.00237362 C552.36143527 -0.0006274 555.4869424 0.00241102 558.6125114 0.00709444 C559.53049282 0.00475328 560.44847424 0.00241211 561.39427328 0 C567.58298631 0.01878525 567.58298631 0.01878525 568.69713664 1.13293558 C568.69713664 3.11293558 568.69713664 5.09293558 568.69713664 7.13293558 C378.61713664 7.13293558 188.53713664 7.13293558 -7.30286336 7.13293558 C-7.30286336 -0.87115523 -7.210133 0.02188567 0 0 Z " fill="#079864" transform="translate(21.302863359451294,156.86706441640854)"/>
<path d="M0 0 C7.25213015 4.62068768 10.38846609 15.69979314 12.25 23.625 C15.18363893 41.36787388 16.8432792 66.83190543 6.39453125 82.390625 C2.14392388 87.60770601 -1.93399845 90.65058915 -8.8046875 91.43359375 C-10.1612536 91.45719912 -11.51838161 91.45787977 -12.875 91.4375 C-13.93726807 91.42505249 -13.93726807 91.42505249 -15.02099609 91.41235352 C-22.61579718 91.16654159 -27.09410378 89.27317827 -32.25 83.8125 C-38.98707735 75.27642107 -40.81625922 65.65509805 -40 55 C-39.11781575 50.7252984 -37.70670304 47.15899298 -35.4375 43.4375 C-32.10098208 41.46980995 -29.2552716 41.42475162 -25.4375 41.2734375 C-23 42 -23 42 -20.7890625 44.48828125 C-18.67985745 48.62840208 -17.98175475 52.25017102 -17.375 56.8125 C-16.98983356 59.57056683 -16.53944808 62.26422758 -16 65 C-15.34 65.33 -14.68 65.66 -14 66 C-10.05494511 63.3699634 -10.00629442 61.56093629 -9 57 C-7.55567934 44.8482637 -10.07194946 33.57158358 -12.953125 21.7980957 C-16.25979347 7.93007561 -16.25979347 7.93007561 -12.5625 1.5 C-8.45138292 -0.90650756 -4.61656375 -1.04622602 0 0 Z " fill="#FCFCFC" transform="translate(224,46)"/>
<path d="M0 0 C4.92229655 2.95896088 8.32668331 6.63457474 10.62890625 11.9296875 C12.59383423 20.11688742 10.5973352 26.78608495 6.28125 33.8515625 C0.48727154 41.47211722 -7.64393066 44.02492452 -16.62109375 46.0546875 C-14.95659135 48.06961146 -13.75996238 49.00304791 -11.2890625 49.921875 C-7.73931543 50.09858276 -5.97020399 48.9776259 -2.93359375 47.1796875 C-1.98097656 46.62539062 -1.02835937 46.07109375 -0.046875 45.5 C0.75363281 45.02304688 1.55414063 44.54609375 2.37890625 44.0546875 C5.47064377 42.50881874 7.97320177 42.76109229 11.37890625 43.0546875 C13.87890625 44.5546875 13.87890625 44.5546875 15.37890625 47.0546875 C15.5770955 53.00036494 13.99422701 56.59033101 10.2578125 61.1640625 C4.11282727 67.34737404 -3.10236421 71.3121532 -11.87109375 71.4921875 C-19.46416834 71.33792639 -24.16597697 69.42050702 -29.5859375 64.140625 C-37.23735244 55.24363088 -39.30219715 45.24784017 -38.9375 33.73046875 C-37.93226588 22.05237856 -34.33825306 12.04062282 -25.49609375 4.0546875 C-18.36233211 -1.90443869 -8.83756139 -3.18731722 0 0 Z M-9.62109375 16.0546875 C-13.6371334 18.11697813 -15.71104621 19.93300596 -17.62109375 24.0546875 C-17.62109375 25.3746875 -17.62109375 26.6946875 -17.62109375 28.0546875 C-12.76671376 27.60311727 -10.12935362 26.46271137 -6.62109375 23.0546875 C-6.29109375 22.0646875 -5.96109375 21.0746875 -5.62109375 20.0546875 C-6.94109375 18.7346875 -8.26109375 17.4146875 -9.62109375 16.0546875 Z " fill="#FDFDFD" transform="translate(335.62109375,62.9453125)"/>
<path d="M0 0 C7.89143887 4.45904604 11.91216615 12.8532867 14.51171875 21.19921875 C17.01786431 34.17116934 15.95208942 49.05923988 9.26171875 60.76171875 C5.80623675 65.59080851 1.1938336 70.30518047 -4.48828125 72.19921875 C-12.4392556 73.0065799 -19.13584374 73.21616264 -25.58984375 68.09375 C-34.42755849 59.27421986 -36.76386874 49.5144158 -36.92578125 37.38671875 C-36.85544167 25.47954615 -34.56147597 14.38199948 -26.48828125 5.19921875 C-19.11210178 -1.32948478 -9.47604626 -3.04959102 0 0 Z M-12.48828125 19.19921875 C-17.46690175 27.40060698 -17.86089118 36.53366695 -15.9453125 45.8359375 C-14.65036112 49.70648279 -13.08920654 52.21250135 -9.48828125 54.19921875 C-4.38990776 48.93089948 -3.74402469 43.37043742 -3.17578125 36.32421875 C-3.32471902 30.64166987 -4.39259273 23.29490727 -8.48828125 19.19921875 C-9.80828125 19.19921875 -11.12828125 19.19921875 -12.48828125 19.19921875 Z " fill="#FDFDFD" transform="translate(278.48828125,64.80078125)"/>
<path d="M0 0 C3.34924492 2.52710737 3.91702946 3.63848552 4.875 7.8125 C4.75152855 10.95808222 4.19545518 11.81669377 1.86328125 14.00390625 C-0.70002294 15.79634816 -3.29823632 17.425744 -6 19 C-9.22994813 20.69851109 -9.22994813 20.69851109 -9.875 23.8125 C-10.03139465 27.80056368 -9.49932032 28.89478385 -7 32 C-4.99036932 33.8127689 -2.94672712 35.55505988 -0.83984375 37.25390625 C2.40860432 40.33682831 3.31512652 43.20515772 3.4375 47.625 C3.25888183 55.2051084 -0.14073473 61.28736836 -5.1875 66.8125 C-12.80127694 73.70737955 -19.7002757 75.56329857 -29.8984375 75.37109375 C-32.81041313 75.02268357 -34.57855393 74.61238471 -37 73 C-38.74075775 69.51848451 -38.57089177 65.79914882 -38 62 C-34.75172121 57.99378949 -29.96034971 56.68779833 -25.20703125 55.02734375 C-22.68026824 54.08399937 -22.68026824 54.08399937 -21 51 C-21.20048001 46.31678705 -23.74142943 43.13695278 -26.4375 39.5 C-31.34816062 32.81281287 -34.2779266 27.41301678 -33 19 C-30.13432725 10.5053272 -25.41669905 5.70410146 -17.9375 1.125 C-12.42009822 -0.97866689 -5.75300969 -0.88992963 0 0 Z " fill="#FDFDFD" transform="translate(411,60)"/>
<path d="M0 0 C3.11937969 1.37252707 4.4897715 1.979543 6 5 C7.0105501 12.79567218 3.93550678 18.37285128 0 25 C-2 27 -2 27 -5.125 27.125 C-6.548125 27.063125 -6.548125 27.063125 -8 27 C-8.6875 25.375 -8.6875 25.375 -9 23 C-7.5625 19.75 -7.5625 19.75 -6 17 C-6.928125 16.731875 -7.85625 16.46375 -8.8125 16.1875 C-13.54545455 14.42424242 -13.54545455 14.42424242 -15 12 C-15.47243909 7.7480482 -15.67015459 5.27648494 -13.6875 1.5 C-9.31542361 -0.94022868 -4.8847583 -0.61511771 0 0 Z " fill="#FBFBFB" transform="translate(367,45)"/>
<path d="M0 0 C3.43139495 1.68450297 5.34327715 3.00063914 7.4375 6.1875 C8.25907404 10.2953702 8.14919027 13.95953484 7 18 C4.43464804 21.24044458 2.913195 22.69560167 -1 24 C-5.25160217 24.40109454 -7.5006973 24.26378256 -11.3125 22.25 C-15.15824916 19.03030303 -15.15824916 19.03030303 -16 16 C-16.42543885 10.63947052 -16.47662684 7.34578355 -13 3 C-9.46022553 -0.94820998 -4.94858506 -0.77187635 0 0 Z M-7 6 C-9.31282587 9.46923881 -9.42478586 10.92205575 -9 15 C-7.95625978 17.04451019 -7.95625978 17.04451019 -6 18 C-3.40882687 17.99843776 -3.40882687 17.99843776 -1 17 C1.33296251 14.17282787 1.33296251 14.17282787 0.75 10.9375 C0.2406756 7.900541 0.2406756 7.900541 -2 6 C-4.5 5.58333333 -4.5 5.58333333 -7 6 Z " fill="#FAFAFA" transform="translate(345,188)"/>
<path d="M0 0 C3.0625 1.5 3.0625 1.5 5 3 C4.34 4.32 3.68 5.64 3 7 C-1 7 -1 7 -3.0625 6.3125 C-5.03833797 5.79285382 -5.03833797 5.79285382 -6.75 6.9375 C-8.73980117 10.22067194 -8.1864396 13.20906137 -8 17 C-6.00045254 17.04254356 -3.99958364 17.04080783 -2 17 C-1.67 16.67 -1.34 16.34 -1 16 C-2.32 15.67 -3.64 15.34 -5 15 C-5 13.35 -5 11.7 -5 10 C-1.04 10 2.92 10 7 10 C6.63151659 18.35229068 6.63151659 18.35229068 3.5625 21.5 C-0.64331908 23.96194287 -3.04037384 24.41330218 -8 24 C-12.03019601 21.87083984 -14.30220108 20.21362823 -16 16 C-16.65528607 12.20623855 -16.86351149 8.5472585 -14.94921875 5.1171875 C-10.50089882 -0.31527401 -6.68091762 -0.69112941 0 0 Z " fill="#F9F9F9" transform="translate(374,188)"/>
<path d="M0 0 C11.60714286 0 11.60714286 0 16 3 C19.41034583 6.77019047 19.55728009 9.65303504 19.43359375 14.5859375 C18.77973858 18.22632031 16.87419545 19.82682783 14 22 C13.67 22.33 13.34 22.66 13 23 C8.66469082 23.14393457 4.33842269 23.04212061 0 23 C0 15.41 0 7.82 0 0 Z M7 6 C7 9.96 7 13.92 7 18 C10.68377223 16.42163702 10.68377223 16.42163702 12 15 C12.26293056 10.96839809 12.29404844 9.44107266 10 6 C9.01 6 8.02 6 7 6 Z " fill="#F8F8F8" transform="translate(224,188)"/>
<path d="M0 0 C2.31 0 4.62 0 7 0 C7.67354499 1.43429001 8.33859701 2.87257057 9 4.3125 C9.556875 5.51326172 9.556875 5.51326172 10.125 6.73828125 C11 9 11 9 11 12 C11.66 12 12.32 12 13 12 C13.20496094 11.21753906 13.40992188 10.43507812 13.62109375 9.62890625 C13.89050781 8.61699219 14.15992188 7.60507813 14.4375 6.5625 C14.70433594 5.55316406 14.97117187 4.54382813 15.24609375 3.50390625 C16 1 16 1 17 0 C19.33297433 -0.04092937 21.66705225 -0.04241723 24 0 C23.29385121 4.90381102 21.40371082 9.216263 19.5 13.75 C19.17902344 14.52988281 18.85804688 15.30976563 18.52734375 16.11328125 C16.13778832 21.86221168 16.13778832 21.86221168 15 23 C13.00041636 23.04080783 10.99954746 23.04254356 9 23 C7.49414477 19.54418685 5.99631711 16.08495247 4.5 12.625 C4.07074219 11.64015625 3.64148438 10.6553125 3.19921875 9.640625 C2.79316406 8.69960937 2.38710938 7.75859375 1.96875 6.7890625 C1.59169922 5.91975098 1.21464844 5.05043945 0.82617188 4.15478516 C0 2 0 2 0 0 Z " fill="#F9F9F9" transform="translate(268,188)"/>
<path d="M0 0 C4.95 0 9.9 0 15 0 C15 1.98 15 3.96 15 6 C12.36 6 9.72 6 7 6 C7 6.99 7 7.98 7 9 C9.31 9 11.62 9 14 9 C14 10.65 14 12.3 14 14 C11.69 14 9.38 14 7 14 C7 15.32 7 16.64 7 18 C9.64 18 12.28 18 15 18 C15 19.65 15 21.3 15 23 C10.05 23 5.1 23 0 23 C0 15.41 0 7.82 0 0 Z " fill="#F9FAFA" transform="translate(249,188)"/>
<path d="M0 0 C2.31 0 4.62 0 7 0 C7 5.94 7 11.88 7 18 C9.64 18 12.28 18 15 18 C15 19.65 15 21.3 15 23 C10.05 23 5.1 23 0 23 C0 15.41 0 7.82 0 0 Z " fill="#F7F7F7" transform="translate(309,188)"/>
<path d="M0 0 C0.66 0.33 1.32 0.66 2 1 C4.47251437 11.88857292 2.91868826 22.38500876 0 33 C-0.9849372 29.52718441 -0.72377792 27.53846985 0 24 C0 22.68 0 21.36 0 20 C0 16 0 16 0.52734375 13.61328125 C1.06340409 10.64944353 0.88659487 8.17637494 0.5625 5.1875 C0.46066406 4.21167969 0.35882813 3.23585938 0.25390625 2.23046875 C0.17011719 1.49441406 0.08632813 0.75835937 0 0 Z " fill="#F0F0F0" transform="translate(291,85)"/>
<path d="M0 0 C0 1.98 0 3.96 0 6 C-1.65 5.67 -3.3 5.34 -5 5 C-5 3.68 -5 2.36 -5 1 C-2 0 -2 0 0 0 Z " fill="#08A15F" transform="translate(589,157)"/>
<path d="M0 0 C2.31 0 4.62 0 7 0 C7.66 1.65 8.32 3.3 9 5 C8.34 5 7.68 5 7 5 C6.34 4.01 5.68 3.02 5 2 C4.01 1.67 3.02 1.34 2 1 C2.33 1.99 2.66 2.98 3 4 C2.01 4.495 2.01 4.495 1 5 C0.67 3.35 0.34 1.7 0 0 Z " fill="#EFF0F0" transform="translate(268,188)"/>
</svg>
